<svg width="24" height="26" viewBox="0 0 24 26" fill="none" xmlns="http://www.w3.org/2000/svg">
<path fill-rule="evenodd" clip-rule="evenodd" d="M20.8142 16.8058H7.43232C6.91821 16.8058 6.43405 16.6677 6.02476 16.4308V18.2366C6.02476 19.0013 6.65367 19.6278 7.43232 19.6278H20.1603C21.6577 19.6278 22.8806 20.8366 22.8806 22.3167C22.8806 23.7967 21.6577 25.0055 20.1603 25.0055C18.6629 25.0055 17.44 23.8017 17.44 22.3167C17.44 21.8233 17.5748 21.3595 17.8144 20.9599H11.7549C11.9944 21.3546 12.1292 21.8233 12.1292 22.3167C12.1292 23.7967 10.9063 25.0055 9.40891 25.0055C7.9115 25.0055 6.68861 23.8017 6.68861 22.3167C6.68861 21.8134 6.83336 21.3398 7.07794 20.9352C5.72527 20.7626 4.67708 19.618 4.67708 18.2366V14.0923V10.8114V7.14082V6.66226V3.64288L1.41272 2.2812C1.06832 2.13813 0.908595 1.74837 1.05335 1.40795C1.1981 1.06753 1.59241 0.909653 1.93682 1.05273L5.61546 2.58215C5.62545 2.58709 5.63668 2.59202 5.64791 2.59695C5.65914 2.60189 5.67037 2.60682 5.68035 2.61175C5.68285 2.61422 5.68534 2.61545 5.68784 2.61669C5.69033 2.61792 5.69283 2.61915 5.69533 2.62162C5.70531 2.62656 5.72028 2.63642 5.73526 2.64629C5.74025 2.65122 5.74524 2.65492 5.75023 2.65862C5.75522 2.66232 5.76021 2.66602 5.7652 2.67096C5.7677 2.67342 5.77144 2.67589 5.77519 2.67836L5.77519 2.67836C5.77893 2.68083 5.78268 2.68329 5.78517 2.68576C5.80014 2.69563 5.81013 2.70549 5.82011 2.71536L5.83508 2.73016L5.86503 2.75976L5.88001 2.77456C5.8825 2.7795 5.88624 2.78443 5.88998 2.78936L5.88999 2.78936C5.89373 2.7943 5.89748 2.79923 5.89997 2.80417C5.90247 2.8091 5.90496 2.8128 5.90746 2.8165C5.90996 2.8202 5.91245 2.8239 5.91495 2.82883C5.91744 2.83377 5.91994 2.83747 5.92243 2.84117C5.92493 2.84487 5.92742 2.84857 5.92992 2.8535C5.9399 2.86337 5.94489 2.87324 5.94989 2.8831C5.95238 2.88557 5.95363 2.88927 5.95488 2.89297C5.95612 2.89667 5.95737 2.90037 5.95987 2.90284C5.96985 2.91764 5.97484 2.92751 5.97983 2.94231C5.97983 2.94477 5.98108 2.94847 5.98233 2.95217L5.98233 2.95217C5.98358 2.95587 5.98483 2.95957 5.98483 2.96204L5.9998 3.00644C5.9998 3.01138 6.00105 3.01508 6.0023 3.01878C6.00354 3.02248 6.00479 3.02618 6.00479 3.03111C6.00729 3.03851 6.00853 3.04468 6.00978 3.05085C6.01103 3.05701 6.01228 3.06318 6.01477 3.07058C6.01477 3.07798 6.01602 3.08538 6.01727 3.09278C6.01852 3.10018 6.01976 3.10758 6.01976 3.11498C6.02476 3.12485 6.02476 3.12979 6.02476 3.13472C6.02975 3.15445 6.02975 3.17912 6.02975 3.20378V3.20379V5.54233L22.9904 7.8562C22.9963 7.8562 23.0004 7.85789 23.0039 7.85929C23.0063 7.86029 23.0083 7.86113 23.0104 7.86113C23.0254 7.86113 23.0354 7.86113 23.0503 7.86607C23.0514 7.86607 23.0527 7.86629 23.0541 7.86663L23.0588 7.86791C23.0636 7.86931 23.0695 7.871 23.0753 7.871C23.0853 7.871 23.1003 7.87593 23.1102 7.88087C23.1152 7.88334 23.1202 7.88457 23.1252 7.8858C23.1302 7.88703 23.1352 7.88827 23.1402 7.89074L23.1701 7.90554L23.2001 7.92034L23.23 7.93514C23.24 7.945 23.25 7.94994 23.26 7.95487C23.265 7.95734 23.2687 7.95981 23.2725 7.96227C23.2762 7.96474 23.2799 7.96721 23.2849 7.96967C23.2899 7.97214 23.2949 7.97584 23.2999 7.97954C23.3049 7.98324 23.3099 7.98694 23.3149 7.98941C23.3199 7.99187 23.3236 7.99557 23.3274 7.99927C23.3311 8.00297 23.3349 8.00667 23.3398 8.00914L23.3648 8.03381L23.3679 8.03652L23.3704 8.03843C23.3754 8.04218 23.3813 8.04667 23.3848 8.05354C23.3873 8.05848 23.391 8.06218 23.3947 8.06588C23.3985 8.06958 23.4022 8.07328 23.4047 8.07821C23.4072 8.08315 23.411 8.08685 23.4147 8.09055C23.4168 8.09259 23.4188 8.09463 23.4207 8.09687C23.4222 8.0987 23.4236 8.10067 23.4247 8.10288C23.4347 8.11275 23.4397 8.11768 23.4447 8.12755C23.4472 8.13248 23.4509 8.13742 23.4546 8.14235C23.4584 8.14728 23.4621 8.15222 23.4646 8.15715C23.4671 8.16208 23.4696 8.16578 23.4721 8.16949C23.4746 8.17319 23.4771 8.17689 23.4796 8.18182L23.4946 8.21142C23.4996 8.21635 23.5046 8.22622 23.5095 8.23609C23.5145 8.25089 23.5195 8.26076 23.5245 8.27062C23.527 8.27556 23.5283 8.28049 23.5295 8.28543C23.5308 8.29036 23.532 8.29529 23.5345 8.30023C23.537 8.30515 23.5382 8.31008 23.5395 8.315L23.5395 8.31503L23.5412 8.32123C23.542 8.32409 23.543 8.32696 23.5445 8.32983C23.5467 8.33632 23.5479 8.34186 23.549 8.34687C23.5504 8.35328 23.5517 8.35882 23.5545 8.36436C23.5545 8.3693 23.5557 8.37423 23.557 8.37916L23.557 8.37919C23.5582 8.38411 23.5595 8.38904 23.5595 8.39397C23.5595 8.39889 23.5607 8.40504 23.562 8.4112L23.562 8.41123C23.5632 8.4174 23.5645 8.42357 23.5645 8.4285C23.5694 8.43837 23.5694 8.44824 23.5694 8.4581V8.49757V8.51731V14.0824C23.5694 15.5823 22.3316 16.8058 20.8142 16.8058ZM9.4139 23.6685C10.1676 23.6685 10.7865 23.0616 10.7865 22.3117C10.7865 21.5618 10.1676 20.955 9.4139 20.955C8.6602 20.955 8.04127 21.5667 8.04127 22.3117C8.04127 23.0567 8.6602 23.6685 9.4139 23.6685ZM21.538 22.3117C21.538 23.0616 20.919 23.6685 20.1653 23.6685C19.4116 23.6685 18.7927 23.0567 18.7927 22.3117C18.7927 21.5667 19.4116 20.955 20.1653 20.955C20.919 20.955 21.538 21.5618 21.538 22.3117ZM7.43232 15.4737H20.8142C21.5879 15.4737 22.2218 14.8521 22.2218 14.0775V9.08961L6.02476 6.88427V7.13096V10.8016V14.0824C6.02476 14.8471 6.65367 15.4737 7.43232 15.4737Z" fill="#6E7FAA"/>
<path d="M6.02476 16.4308L6.14996 16.2145L5.77476 15.9974V16.4308H6.02476ZM17.8144 20.9599L18.0288 21.0885L18.2558 20.7099H17.8144V20.9599ZM11.7549 20.9599V20.7099H11.3106L11.5411 21.0896L11.7549 20.9599ZM7.07794 20.9352L7.29188 21.0646L7.49059 20.7359L7.10959 20.6873L7.07794 20.9352ZM4.67708 3.64288H4.92708V3.47629L4.77333 3.41215L4.67708 3.64288ZM1.41272 2.2812L1.50897 2.05047L1.50863 2.05033L1.41272 2.2812ZM1.93682 1.05273L2.03279 0.821884L2.03273 0.821857L1.93682 1.05273ZM5.61546 2.58215L5.72623 2.35803L5.71894 2.35443L5.71144 2.35131L5.61546 2.58215ZM5.68035 2.61175L5.85609 2.43395L5.82735 2.40554L5.79111 2.38763L5.68035 2.61175ZM5.69533 2.62162L5.51958 2.79943L5.54833 2.82784L5.58456 2.84574L5.69533 2.62162ZM5.73526 2.64629L5.91101 2.46849L5.89344 2.45113L5.87282 2.43754L5.73526 2.64629ZM5.7652 2.67096L5.58945 2.84876L5.58946 2.84876L5.7652 2.67096ZM5.77519 2.67836L5.91386 2.47034L5.91276 2.46961L5.77519 2.67836ZM5.77519 2.67836L5.63651 2.88638L5.63763 2.88711L5.77519 2.67836ZM5.78517 2.68576L5.60943 2.86356L5.62699 2.88092L5.64761 2.89451L5.78517 2.68576ZM5.82011 2.71536L5.64436 2.89316L5.64436 2.89316L5.82011 2.71536ZM5.83508 2.73016L5.65934 2.90796L5.65934 2.90796L5.83508 2.73016ZM5.86503 2.75976L6.04078 2.58196L6.04078 2.58196L5.86503 2.75976ZM5.88001 2.77456L6.10309 2.66172L6.08471 2.62538L6.05575 2.59676L5.88001 2.77456ZM5.88998 2.78936L6.08999 2.63936L6.08915 2.63825L5.88998 2.78936ZM5.88999 2.78936L5.68999 2.93937L5.69083 2.94049L5.88999 2.78936ZM5.90746 2.8165L6.11472 2.6767L6.11472 2.6767L5.90746 2.8165ZM5.92243 2.84117L5.71517 2.98096L5.71517 2.98097L5.92243 2.84117ZM5.92992 2.8535L5.70684 2.96635L5.72522 3.00268L5.75417 3.0313L5.92992 2.8535ZM5.94989 2.8831L5.7268 2.99595L5.74518 3.03229L5.77414 3.06091L5.94989 2.8831ZM5.95488 2.89297L5.71798 2.97283L5.71799 2.97286L5.95488 2.89297ZM5.95987 2.90284L6.16713 2.76305L6.15326 2.74248L6.13561 2.72503L5.95987 2.90284ZM5.97983 2.94231H6.22983V2.90129L6.21673 2.86242L5.97983 2.94231ZM5.98233 2.95217L5.74542 3.03202L5.74835 3.04072L5.75192 3.04918L5.98233 2.95217ZM5.98233 2.95217L6.21922 2.87228L6.21629 2.8636L6.21274 2.85516L5.98233 2.95217ZM5.98483 2.96204H5.73483V3.00306L5.74793 3.04193L5.98483 2.96204ZM5.9998 3.00644H6.2498V2.96543L6.23669 2.92656L5.9998 3.00644ZM6.00479 3.03111H5.75479V3.07213L5.7679 3.111L6.00479 3.03111ZM6.00978 3.05085L5.76474 3.10041L5.76475 3.10043L6.00978 3.05085ZM6.01477 3.07058H6.26477V3.02956L6.25166 2.99069L6.01477 3.07058ZM6.01976 3.11498H5.76976V3.17462L5.79668 3.22783L6.01976 3.11498ZM6.02476 3.13472H5.77476V3.16585L5.78239 3.19602L6.02476 3.13472ZM6.02975 5.54233H5.77975V5.76054L5.99595 5.79003L6.02975 5.54233ZM22.9904 7.8562L22.9567 8.10391L22.9735 8.1062H22.9904V7.8562ZM23.0039 7.85929L23.0986 7.62794L23.0986 7.62793L23.0039 7.85929ZM23.0503 7.86607L22.9721 8.10351L23.0102 8.11607H23.0503V7.86607ZM23.0541 7.86663L23.1203 7.6254L23.1122 7.62347L23.0541 7.86663ZM23.0588 7.86791L23.1283 7.62775L23.1249 7.62681L23.0588 7.86791ZM23.1102 7.88087L23.221 7.65675L23.221 7.65675L23.1102 7.88087ZM23.1252 7.8858L23.1852 7.6431L23.1852 7.6431L23.1252 7.8858ZM23.1402 7.89074L23.251 7.66661L23.2509 7.66661L23.1402 7.89074ZM23.1701 7.90554L23.0594 8.12966L23.0594 8.12966L23.1701 7.90554ZM23.2001 7.92034L23.3109 7.69622L23.3108 7.69621L23.2001 7.92034ZM23.23 7.93514L23.4058 7.75733L23.377 7.72892L23.3408 7.71102L23.23 7.93514ZM23.26 7.95487L23.3708 7.73075L23.3707 7.73075L23.26 7.95487ZM23.2725 7.96227L23.1349 8.17101L23.1349 8.17104L23.2725 7.96227ZM23.2999 7.97954L23.4488 7.77872L23.4488 7.7787L23.2999 7.97954ZM23.3274 7.99927L23.1516 8.17706L23.1516 8.1771L23.3274 7.99927ZM23.3398 8.00914L23.5156 7.83134L23.4868 7.80293L23.4506 7.78502L23.3398 8.00914ZM23.3648 8.03381L23.189 8.21161L23.1951 8.21759L23.2015 8.22315L23.3648 8.03381ZM23.3679 8.03652L23.2047 8.22586L23.2101 8.23052L23.2158 8.23487L23.3679 8.03652ZM23.3704 8.03843L23.2182 8.23678L23.2193 8.23759L23.3704 8.03843ZM23.3848 8.05354L23.1617 8.16642L23.1617 8.16643L23.3848 8.05354ZM23.4147 8.09055L23.2389 8.26832L23.239 8.26835L23.4147 8.09055ZM23.4207 8.09687L23.6135 7.93775L23.6134 7.93767L23.4207 8.09687ZM23.4247 8.10288L23.2016 8.2157L23.22 8.25205L23.249 8.28069L23.4247 8.10288ZM23.4447 8.12755L23.6678 8.01473L23.6677 8.0147L23.4447 8.12755ZM23.4546 8.14235L23.2555 8.29348L23.2555 8.29349L23.4546 8.14235ZM23.4796 8.18182L23.2565 8.29464L23.2565 8.29467L23.4796 8.18182ZM23.4946 8.21142L23.2715 8.32427L23.2899 8.3606L23.3188 8.38922L23.4946 8.21142ZM23.5095 8.23609L23.7464 8.1562L23.7407 8.13922L23.7326 8.12324L23.5095 8.23609ZM23.5245 8.27062L23.3014 8.38347L23.3015 8.38351L23.5245 8.27062ZM23.5345 8.30023L23.3114 8.41305V8.41305L23.5345 8.30023ZM23.5395 8.315L23.782 8.25437L23.7818 8.25364L23.5395 8.315ZM23.5395 8.31503L23.2969 8.37567L23.298 8.37972L23.5395 8.31503ZM23.5412 8.32123L23.2996 8.38595L23.3015 8.39251L23.5412 8.32123ZM23.5445 8.32983L23.7814 8.24996L23.7757 8.233L23.7676 8.21702L23.5445 8.32983ZM23.549 8.34687L23.3049 8.40097L23.3049 8.401L23.549 8.34687ZM23.5545 8.36436H23.8045V8.30471L23.7775 8.25149L23.5545 8.36436ZM23.557 8.37916L23.8004 8.3219L23.7993 8.31789L23.557 8.37916ZM23.557 8.37919L23.3136 8.43646L23.3146 8.44047L23.557 8.37919ZM23.562 8.4112L23.809 8.37167L23.807 8.36161L23.562 8.4112ZM23.562 8.41123L23.3149 8.45076L23.3169 8.4608L23.562 8.41123ZM23.5645 8.4285H23.3145V8.48814L23.3414 8.54135L23.5645 8.4285ZM22.2218 14.0775H21.9718V14.0775L22.2218 14.0775ZM22.2218 9.08961H22.4718V8.87134L22.2555 8.84189L22.2218 9.08961ZM6.02476 6.88427L6.05848 6.63656L5.77476 6.59793V6.88427H6.02476ZM7.43232 17.0558H20.8142V16.5558H7.43232V17.0558ZM5.89955 16.6472C6.34612 16.9056 6.87336 17.0558 7.43232 17.0558V16.5558C6.96307 16.5558 6.52198 16.4297 6.14996 16.2145L5.89955 16.6472ZM6.27476 18.2366V16.4308H5.77476V18.2366H6.27476ZM7.43232 19.3778C6.78957 19.3778 6.27476 18.861 6.27476 18.2366H5.77476C5.77476 19.1415 6.51777 19.8778 7.43232 19.8778V19.3778ZM20.1603 19.3778H7.43232V19.8778H20.1603V19.3778ZM23.1306 22.3167C23.1306 20.6958 21.7931 19.3778 20.1603 19.3778V19.8778C21.5224 19.8778 22.6306 20.9774 22.6306 22.3167H23.1306ZM20.1603 25.2555C21.7931 25.2555 23.1306 23.9376 23.1306 22.3167H22.6306C22.6306 23.6559 21.5224 24.7555 20.1603 24.7555V25.2555ZM17.19 22.3167C17.19 23.9428 18.5279 25.2555 20.1603 25.2555V24.7555C18.7979 24.7555 17.69 23.6606 17.69 22.3167H17.19ZM17.6 20.8314C17.3376 21.269 17.19 21.7771 17.19 22.3167H17.69C17.69 21.8695 17.812 21.45 18.0288 21.0885L17.6 20.8314ZM11.7549 21.2099H17.8144V20.7099H11.7549V21.2099ZM12.3792 22.3167C12.3792 21.7778 12.232 21.2642 11.9686 20.8302L11.5411 21.0896C11.7569 21.445 11.8792 21.8688 11.8792 22.3167H12.3792ZM9.40891 25.2555C11.0416 25.2555 12.3792 23.9376 12.3792 22.3167H11.8792C11.8792 23.6559 10.771 24.7555 9.40891 24.7555V25.2555ZM6.43861 22.3167C6.43861 23.9428 7.77648 25.2555 9.40891 25.2555V24.7555C8.04652 24.7555 6.93861 23.6606 6.93861 22.3167H6.43861ZM6.86399 20.8059C6.59736 21.2469 6.43861 21.765 6.43861 22.3167H6.93861C6.93861 21.8619 7.06936 21.4327 7.29188 21.0646L6.86399 20.8059ZM4.42708 18.2366C4.42708 19.748 5.57299 20.9952 7.04628 21.1832L7.10959 20.6873C5.87755 20.53 4.92708 19.488 4.92708 18.2366H4.42708ZM4.42708 14.0923V18.2366H4.92708V14.0923H4.42708ZM4.42708 10.8114V14.0923H4.92708V10.8114H4.42708ZM4.42708 7.14082V10.8114H4.92708V7.14082H4.42708ZM4.42708 6.66226V7.14082H4.92708V6.66226H4.42708ZM4.42708 3.64288V6.66226H4.92708V3.64288H4.42708ZM1.31648 2.51193L4.58084 3.87361L4.77333 3.41215L1.50897 2.05047L1.31648 2.51193ZM0.82328 1.31012C0.623731 1.77942 0.845226 2.31616 1.31681 2.51207L1.50863 2.05033C1.29141 1.96009 1.19346 1.71732 1.28341 1.50578L0.82328 1.31012ZM2.03273 0.821857C1.56403 0.627147 1.02278 0.840947 0.82328 1.31012L1.28341 1.50578C1.37341 1.29411 1.6208 1.19216 1.84091 1.2836L2.03273 0.821857ZM5.71144 2.35131L2.03279 0.821884L1.84084 1.28357L5.51949 2.813L5.71144 2.35131ZM5.74846 2.36807C5.736 2.36259 5.7302 2.35999 5.72623 2.35803L5.5047 2.80628C5.52069 2.81418 5.53736 2.82145 5.54736 2.82584L5.74846 2.36807ZM5.79111 2.38763C5.77512 2.37973 5.75846 2.37246 5.74846 2.36807L5.54736 2.82584C5.55982 2.83132 5.56561 2.83391 5.56959 2.83588L5.79111 2.38763ZM5.7986 2.39257C5.7961 2.39133 5.82696 2.40515 5.85609 2.43395L5.50461 2.78956C5.53874 2.82329 5.57459 2.83958 5.57707 2.84081L5.7986 2.39257ZM5.87107 2.44382C5.83694 2.41009 5.80111 2.3938 5.7986 2.39257L5.57707 2.84081C5.57956 2.84204 5.54871 2.82822 5.51958 2.79943L5.87107 2.44382ZM5.87282 2.43754C5.86428 2.43191 5.83348 2.41104 5.80609 2.3975L5.58456 2.84574C5.58219 2.84457 5.58045 2.84364 5.57948 2.84311C5.57848 2.84257 5.57788 2.84222 5.57777 2.84215C5.57763 2.84207 5.57839 2.84251 5.58031 2.84372C5.58451 2.84636 5.58968 2.84976 5.5977 2.85504L5.87282 2.43754ZM5.89911 2.45779C5.89605 2.45552 5.89741 2.45649 5.89929 2.458C5.90175 2.45998 5.906 2.46354 5.91101 2.46849L5.55951 2.82409C5.57881 2.84316 5.59745 2.85657 5.60135 2.85946L5.89911 2.45779ZM5.94096 2.49316C5.92166 2.47408 5.90301 2.46068 5.89911 2.45779L5.60135 2.85946C5.60441 2.86172 5.60305 2.86076 5.60118 2.85925C5.59871 2.85727 5.59446 2.8537 5.58945 2.84876L5.94096 2.49316ZM5.91276 2.46961C5.90999 2.46779 5.9125 2.4694 5.91565 2.47167C5.91757 2.47304 5.9208 2.47542 5.92476 2.47864C5.92866 2.48179 5.93438 2.48666 5.94095 2.49315L5.58946 2.84876C5.60413 2.86326 5.61763 2.87321 5.6238 2.87765C5.63039 2.88238 5.63665 2.88646 5.63762 2.8871L5.91276 2.46961ZM5.91387 2.47035L5.91386 2.47035L5.63651 2.88637L5.63652 2.88637L5.91387 2.47035ZM5.96091 2.50795C5.94625 2.49346 5.93275 2.48351 5.92658 2.47907C5.91999 2.47434 5.91374 2.47026 5.91276 2.46961L5.63763 2.88711C5.64039 2.88893 5.63787 2.88732 5.63472 2.88505C5.6328 2.88367 5.62957 2.88129 5.62561 2.87808C5.62172 2.87492 5.61599 2.87005 5.60943 2.86356L5.96091 2.50795ZM5.99586 2.53756C5.98556 2.52738 5.9603 2.50176 5.92273 2.47701L5.64761 2.89451C5.64405 2.89216 5.64115 2.88982 5.6395 2.88837C5.63888 2.88782 5.63879 2.88771 5.63956 2.88844C5.64051 2.88936 5.64166 2.89049 5.64436 2.89316L5.99586 2.53756ZM6.01083 2.55236L5.99586 2.53756L5.64436 2.89316L5.65934 2.90796L6.01083 2.55236ZM6.04078 2.58196L6.01083 2.55236L5.65934 2.90796L5.68929 2.93757L6.04078 2.58196ZM6.05575 2.59676L6.04078 2.58196L5.68929 2.93757L5.70426 2.95237L6.05575 2.59676ZM6.08915 2.63825C6.08669 2.635 6.08802 2.6367 6.08977 2.63922C6.09165 2.64192 6.09714 2.64995 6.10309 2.66172L5.65693 2.88741C5.67162 2.91647 5.69056 2.94013 5.69082 2.94047L6.08915 2.63825ZM6.08999 2.63936L6.08998 2.63936L5.68998 2.93936L5.68999 2.93936L6.08999 2.63936ZM6.12305 2.69132C6.10835 2.66225 6.0894 2.63859 6.08914 2.63824L5.69083 2.94049C5.6933 2.94373 5.69197 2.94204 5.69021 2.93952C5.68833 2.93682 5.68284 2.92878 5.67689 2.91701L6.12305 2.69132ZM6.11472 2.6767C6.11219 2.67295 6.11774 2.68081 6.12305 2.69132L5.67689 2.91701C5.6872 2.93739 5.69774 2.95265 5.7002 2.9563L6.11472 2.6767ZM6.13803 2.71598C6.12772 2.69561 6.11719 2.68037 6.11472 2.6767L5.7002 2.95629C5.70272 2.96003 5.69718 2.95219 5.69187 2.94168L6.13803 2.71598ZM6.12969 2.70137C6.12717 2.69764 6.13271 2.70548 6.13803 2.71598L5.69187 2.94168C5.70217 2.96205 5.7127 2.9773 5.71517 2.98096L6.12969 2.70137ZM6.153 2.74065C6.14269 2.72027 6.13215 2.70502 6.12969 2.70137L5.71517 2.98097C5.71771 2.98472 5.71216 2.97686 5.70684 2.96635L6.153 2.74065ZM6.17297 2.77025C6.16788 2.7602 6.14745 2.717 6.10567 2.6757L5.75417 3.0313C5.74368 3.02093 5.73588 3.01046 5.73047 3.00191C5.72623 2.99521 5.72363 2.98967 5.7268 2.99595L6.17297 2.77025ZM6.19178 2.81311C6.19164 2.81271 6.19032 2.80873 6.1887 2.80432C6.18699 2.79963 6.1841 2.79207 6.17999 2.78313C6.17219 2.76618 6.15606 2.73537 6.12563 2.7053L5.77414 3.06091C5.74621 3.0333 5.73195 3.00558 5.72571 2.99202C5.71998 2.97955 5.7165 2.96847 5.71798 2.97283L6.19178 2.81311ZM6.13561 2.72503C6.16354 2.75264 6.1778 2.78036 6.18404 2.79391C6.18977 2.80638 6.19324 2.81746 6.19177 2.81308L5.71799 2.97286C5.71812 2.97325 5.71944 2.97723 5.72106 2.98164C5.72277 2.98632 5.72566 2.99388 5.72977 3.00282C5.73757 3.01977 5.7537 3.05057 5.78413 3.08064L6.13561 2.72503ZM6.21673 2.86242C6.20365 2.82364 6.18788 2.79381 6.16713 2.76305L5.7526 3.04263C5.75404 3.04476 5.75176 3.04159 5.74864 3.03542C5.74709 3.03236 5.74575 3.02939 5.74466 3.02672C5.74361 3.02416 5.74304 3.02249 5.74294 3.0222L6.21673 2.86242ZM6.21923 2.87232C6.21806 2.86885 6.21987 2.87397 6.22162 2.88032C6.22264 2.88402 6.22442 2.89086 6.22603 2.89973C6.22753 2.90801 6.22983 2.92311 6.22983 2.94231H5.72983C5.72983 2.97861 5.73786 3.00689 5.73961 3.01323C5.74229 3.02297 5.74534 3.03179 5.74542 3.03202L6.21923 2.87232ZM6.21274 2.85516L6.21274 2.85515L5.75192 3.04918L5.75192 3.04919L6.21274 2.85516ZM6.23483 2.96204C6.23483 2.92572 6.22679 2.89741 6.22504 2.89107C6.22235 2.88133 6.2193 2.87251 6.21922 2.87228L5.74544 3.03206C5.74661 3.03553 5.7448 3.03042 5.74305 3.02407C5.74203 3.02036 5.74025 3.01352 5.73863 3.00465C5.73713 2.99636 5.73483 2.98126 5.73483 2.96204H6.23483ZM6.23669 2.92656L6.22172 2.88215L5.74793 3.04193L5.76291 3.08633L6.23669 2.92656ZM6.23919 2.93889C6.23796 2.93524 6.2498 2.96627 6.2498 3.00644H5.7498C5.7498 3.05649 5.76414 3.09492 5.7654 3.09867L6.23919 2.93889ZM6.25479 3.03111C6.25479 2.98107 6.24045 2.94264 6.23919 2.93889L5.7654 3.09867C5.76663 3.10231 5.75479 3.07129 5.75479 3.03111H6.25479ZM6.25482 3.00128C6.25358 2.99514 6.24973 2.97509 6.24168 2.95122L5.7679 3.111C5.76484 3.10194 5.76349 3.09422 5.76474 3.10041L6.25482 3.00128ZM6.25166 2.99069C6.25472 2.99975 6.25607 3.00747 6.25482 3.00127L5.76475 3.10043C5.76599 3.10655 5.76983 3.12661 5.77788 3.15047L6.25166 2.99069ZM6.26379 3.05121C6.26344 3.04915 6.26334 3.04857 6.26329 3.0482C6.26325 3.04796 6.26339 3.04881 6.26358 3.05032C6.26394 3.05316 6.26477 3.06051 6.26477 3.07058H5.76477C5.76477 3.10248 5.77013 3.13068 5.77075 3.13435L6.26379 3.05121ZM6.26976 3.11498C6.26976 3.08309 6.26441 3.05489 6.26379 3.05121L5.77075 3.13435C5.7711 3.13641 5.77119 3.137 5.77125 3.13737C5.77129 3.1376 5.77115 3.13675 5.77096 3.13525C5.7706 3.13241 5.76976 3.12505 5.76976 3.11498H6.26976ZM6.27476 3.13472C6.27476 3.13185 6.27523 3.10711 6.26917 3.07712C6.26313 3.0473 6.25301 3.02223 6.24285 3.00213L5.79668 3.22783C5.79151 3.21761 5.78389 3.19994 5.7791 3.17628C5.77428 3.15246 5.77476 3.13265 5.77476 3.13472H6.27476ZM6.27975 3.20378C6.27975 3.1889 6.28135 3.12965 6.26712 3.07342L5.78239 3.19602C5.78066 3.18919 5.77994 3.18429 5.77967 3.18217C5.77939 3.18 5.7794 3.17931 5.77948 3.18069C5.77955 3.18206 5.77964 3.18448 5.77969 3.18856C5.77974 3.19278 5.77975 3.19733 5.77975 3.20378H6.27975ZM6.27975 3.20379V3.20378H5.77975V3.20379H6.27975ZM6.27975 5.54233V3.20379H5.77975V5.54233H6.27975ZM23.0242 7.60849L6.06354 5.29462L5.99595 5.79003L22.9567 8.10391L23.0242 7.60849ZM23.0986 7.62793C23.0919 7.6252 23.0488 7.6062 22.9904 7.6062V8.1062C22.9683 8.1062 22.9486 8.10286 22.9322 8.0984C22.9178 8.09446 22.9065 8.08959 22.9091 8.09066L23.0986 7.62793ZM23.0104 7.61113C23.0433 7.61113 23.0687 7.61788 23.0816 7.62188C23.0928 7.62539 23.1022 7.62942 23.0986 7.62794L22.9091 8.09065C22.9093 8.09071 22.9122 8.09193 22.9156 8.09322C22.9191 8.0946 22.9253 8.0969 22.933 8.09929C22.948 8.10396 22.9754 8.11113 23.0104 8.11113V7.61113ZM23.1286 7.62862C23.0726 7.61018 23.0277 7.61113 23.0104 7.61113V8.11113C23.0148 8.11113 23.0152 8.11115 23.015 8.11114C23.0142 8.11112 23.0108 8.11103 23.0058 8.11054C23.0005 8.11002 22.9945 8.10915 22.9881 8.10779C22.9817 8.10644 22.9763 8.1049 22.9721 8.10351L23.1286 7.62862ZM23.1122 7.62347C23.1056 7.62189 23.0813 7.61607 23.0503 7.61607V8.11607C23.0343 8.11607 23.0215 8.11446 23.0138 8.11326C23.0057 8.11202 22.9995 8.11062 22.996 8.10979L23.1122 7.62347ZM23.1249 7.62681L23.1202 7.62553L22.988 8.10773L22.9926 8.109L23.1249 7.62681ZM23.0753 7.621C23.0957 7.621 23.1113 7.62387 23.1189 7.62551C23.1262 7.62705 23.1317 7.62877 23.1283 7.62777L22.9892 8.10804C22.9906 8.10844 23.0016 8.11171 23.0144 8.11445C23.0276 8.11728 23.049 8.121 23.0753 8.121V7.621ZM23.221 7.65675C23.1969 7.64482 23.1413 7.621 23.0753 7.621V8.121C23.0585 8.121 23.0456 8.11905 23.0388 8.11781C23.0313 8.11644 23.0255 8.1149 23.0217 8.11377C23.0148 8.11173 23.0077 8.10907 22.9995 8.10499L23.221 7.65675ZM23.1852 7.6431C23.1816 7.64221 23.186 7.64324 23.1915 7.64493C23.198 7.64694 23.2086 7.65059 23.221 7.65675L22.9995 8.10499C23.0324 8.12127 23.0632 8.128 23.0653 8.12851L23.1852 7.6431ZM23.2509 7.66661C23.218 7.65033 23.1872 7.64361 23.1852 7.6431L23.0652 8.1285C23.0688 8.12938 23.0644 8.12836 23.0589 8.12667C23.0524 8.12466 23.0419 8.12101 23.0294 8.11486L23.2509 7.66661ZM23.2809 7.68142L23.251 7.66661L23.0294 8.11486L23.0594 8.12966L23.2809 7.68142ZM23.3108 7.69621L23.2809 7.68141L23.0594 8.12966L23.0893 8.14446L23.3108 7.69621ZM23.3408 7.71102L23.3109 7.69622L23.0893 8.14446L23.1193 8.15926L23.3408 7.71102ZM23.3707 7.73075C23.3644 7.72761 23.3698 7.73009 23.3764 7.73416C23.3848 7.73936 23.3953 7.74698 23.4058 7.75733L23.0543 8.11294C23.0959 8.15408 23.1392 8.17407 23.1492 8.17899L23.3707 7.73075ZM23.41 7.75354C23.4063 7.75106 23.3911 7.74079 23.3708 7.73075L23.1492 8.17899C23.1389 8.17389 23.1311 8.16855 23.1349 8.17101L23.41 7.75354ZM23.3957 7.74555C23.406 7.75065 23.4138 7.75599 23.41 7.75351L23.1349 8.17104C23.1386 8.17349 23.1539 8.18376 23.1742 8.19379L23.3957 7.74555ZM23.4488 7.7787C23.4483 7.77836 23.4247 7.75987 23.3957 7.74555L23.1742 8.19379C23.1625 8.18805 23.1546 8.18274 23.1519 8.18092C23.1494 8.17923 23.1478 8.17795 23.151 8.18038L23.4488 7.7787ZM23.4257 7.76529C23.4373 7.77103 23.4452 7.77634 23.4479 7.77816C23.4504 7.77986 23.4521 7.78114 23.4488 7.77872L23.151 8.18036C23.1515 8.18072 23.1751 8.19921 23.2041 8.21353L23.4257 7.76529ZM23.5031 7.82149C23.5025 7.82083 23.4933 7.81158 23.482 7.80211C23.4694 7.79159 23.4506 7.77763 23.4257 7.76529L23.2041 8.21353C23.1841 8.20365 23.1697 8.19278 23.1612 8.18565C23.1539 8.17957 23.1485 8.17402 23.1516 8.17706L23.5031 7.82149ZM23.4506 7.78502C23.4706 7.7949 23.485 7.80577 23.4935 7.81289C23.5008 7.81896 23.5062 7.8245 23.5031 7.82145L23.1516 8.1771C23.1523 8.17775 23.1614 8.18699 23.1728 8.19645C23.1853 8.20696 23.2041 8.22092 23.2291 8.23326L23.4506 7.78502ZM23.5405 7.85601L23.5156 7.83134L23.1641 8.18694L23.189 8.21161L23.5405 7.85601ZM23.5312 7.84718L23.528 7.84447L23.2015 8.22315L23.2047 8.22586L23.5312 7.84718ZM23.5226 7.84008L23.5201 7.83818L23.2158 8.23487L23.2182 8.23677L23.5226 7.84008ZM23.6078 7.94067C23.5901 7.90564 23.5683 7.88092 23.552 7.86521C23.5371 7.85073 23.5226 7.84006 23.5215 7.83927L23.2193 8.23759C23.2232 8.24056 23.2141 8.234 23.2042 8.22442C23.1931 8.21361 23.1759 8.19457 23.1617 8.16642L23.6078 7.94067ZM23.5705 7.88806C23.5674 7.88502 23.573 7.89038 23.5792 7.8976C23.5864 7.90605 23.5976 7.92049 23.6078 7.94066L23.1617 8.16643C23.1744 8.19153 23.1887 8.21029 23.1994 8.22275C23.209 8.23398 23.2183 8.24303 23.219 8.24369L23.5705 7.88806ZM23.6278 7.96532C23.6151 7.94023 23.6008 7.92147 23.5901 7.90901C23.5805 7.89778 23.5711 7.88872 23.5705 7.88806L23.219 8.24369C23.2221 8.24674 23.2165 8.24138 23.2103 8.23416C23.2031 8.22571 23.1919 8.21127 23.1817 8.1911L23.6278 7.96532ZM23.5905 7.91278C23.5874 7.90972 23.593 7.91507 23.5992 7.92228C23.6064 7.93072 23.6176 7.94516 23.6278 7.96532L23.1817 8.1911C23.1944 8.2162 23.2087 8.23495 23.2193 8.2474C23.2289 8.25862 23.2383 8.26768 23.2389 8.26832L23.5905 7.91278ZM23.6134 7.93767C23.6022 7.92408 23.591 7.91333 23.5905 7.91275L23.239 8.26835C23.2404 8.26974 23.2391 8.26855 23.2376 8.26694C23.2358 8.26506 23.2322 8.26128 23.2279 8.25608L23.6134 7.93767ZM23.6478 7.99006C23.6364 7.96748 23.6237 7.95007 23.6135 7.93775L23.2279 8.256C23.2207 8.24733 23.2108 8.23385 23.2016 8.2157L23.6478 7.99006ZM23.6677 8.0147C23.6421 7.9641 23.6089 7.93349 23.6004 7.92508L23.249 8.28069C23.2519 8.28362 23.2522 8.28394 23.2521 8.28383C23.2517 8.28345 23.249 8.28067 23.2454 8.27636C23.2415 8.2717 23.2369 8.26583 23.2323 8.25885C23.2278 8.25193 23.2242 8.24561 23.2216 8.2404L23.6677 8.0147ZM23.6538 7.99122C23.6513 7.98797 23.6527 7.98967 23.6544 7.99219C23.6563 7.9949 23.6618 8.00295 23.6678 8.01473L23.2216 8.24037C23.2363 8.26946 23.2552 8.29314 23.2555 8.29348L23.6538 7.99122ZM23.6877 8.04434C23.673 8.01524 23.654 7.99155 23.6538 7.99121L23.2555 8.29349C23.258 8.29673 23.2566 8.29504 23.2549 8.29251C23.253 8.2898 23.2475 8.28175 23.2415 8.26996L23.6877 8.04434ZM23.6793 8.02965C23.6769 8.02596 23.6824 8.03381 23.6877 8.04434L23.2415 8.26996C23.2518 8.29035 23.2624 8.3056 23.2649 8.30932L23.6793 8.02965ZM23.7027 8.069C23.6924 8.04861 23.6819 8.03336 23.6793 8.02965L23.2649 8.30932C23.2674 8.31301 23.2618 8.30516 23.2565 8.29464L23.7027 8.069ZM23.7177 8.09857L23.7027 8.06897L23.2565 8.29467L23.2715 8.32427L23.7177 8.09857ZM23.7326 8.12324C23.7309 8.11982 23.7252 8.10829 23.7185 8.09678C23.7136 8.08823 23.6975 8.06051 23.6703 8.03362L23.3188 8.38922C23.3061 8.37667 23.2979 8.36556 23.2939 8.35986C23.2895 8.35368 23.2867 8.34895 23.2856 8.34703C23.284 8.34415 23.2832 8.34249 23.2865 8.34894L23.7326 8.12324ZM23.7476 8.15777C23.7449 8.15236 23.7449 8.15228 23.745 8.15268C23.7456 8.15387 23.7461 8.15526 23.7464 8.1562L23.2727 8.31598C23.2837 8.34877 23.2957 8.37203 23.3014 8.38347L23.7476 8.15777ZM23.7719 8.22415C23.7714 8.22216 23.7644 8.19099 23.7476 8.15774L23.3015 8.38351C23.2951 8.37086 23.2912 8.3601 23.2891 8.35338C23.2873 8.34773 23.2862 8.34314 23.2871 8.3467L23.7719 8.22415ZM23.7576 8.18741C23.764 8.20004 23.7678 8.21078 23.7699 8.21749C23.7717 8.22313 23.7728 8.22771 23.7719 8.22415L23.2871 8.3467C23.2876 8.3487 23.2946 8.37982 23.3114 8.41305L23.7576 8.18741ZM23.7818 8.25364C23.7813 8.25165 23.7744 8.22057 23.7576 8.1874L23.3114 8.41305C23.305 8.40044 23.3012 8.38971 23.2991 8.38302C23.2973 8.37739 23.2962 8.37282 23.2971 8.37637L23.7818 8.25364ZM23.782 8.25439L23.782 8.25437L23.297 8.37564L23.297 8.37566L23.782 8.25439ZM23.7826 8.25654L23.781 8.25033L23.298 8.37972L23.2997 8.38592L23.7826 8.25654ZM23.7676 8.21702C23.775 8.23167 23.779 8.24387 23.7808 8.24995L23.3015 8.39251C23.305 8.40432 23.3111 8.42225 23.3214 8.44264L23.7676 8.21702ZM23.7931 8.29277C23.792 8.28767 23.7883 8.27043 23.7814 8.24996L23.3076 8.40969C23.3051 8.40221 23.3038 8.39605 23.3049 8.40097L23.7931 8.29277ZM23.7775 8.25149C23.7849 8.26597 23.789 8.27844 23.7913 8.28629C23.7931 8.29247 23.7941 8.29752 23.7931 8.29273L23.3049 8.401C23.3054 8.40295 23.3122 8.43923 23.3314 8.47724L23.7775 8.25149ZM23.7993 8.31789C23.7984 8.31412 23.7997 8.31899 23.8009 8.32519C23.8022 8.33218 23.8045 8.34617 23.8045 8.36436H23.3045C23.3045 8.38749 23.3074 8.40641 23.3096 8.41834C23.3117 8.42947 23.3143 8.43927 23.3146 8.44044L23.7993 8.31789ZM23.8003 8.32193L23.8003 8.3219L23.3136 8.43642L23.3136 8.43645L23.8003 8.32193ZM23.8095 8.39397C23.8095 8.37084 23.8066 8.35192 23.8043 8.33999C23.8022 8.32887 23.7996 8.31907 23.7993 8.3179L23.3146 8.44047C23.3155 8.44423 23.3142 8.43936 23.3131 8.43316C23.3117 8.42616 23.3095 8.41216 23.3095 8.39397H23.8095ZM23.807 8.36161C23.8061 8.35746 23.8066 8.35959 23.8071 8.36267C23.8074 8.36464 23.808 8.36827 23.8084 8.37305C23.8089 8.37774 23.8095 8.38496 23.8095 8.39397H23.3095C23.3095 8.41554 23.312 8.43312 23.3134 8.44157C23.3148 8.4505 23.3165 8.45878 23.3169 8.46078L23.807 8.36161ZM23.8088 8.37174L23.8088 8.3717L23.3151 8.4507L23.3151 8.45073L23.8088 8.37174ZM23.8145 8.4285C23.8145 8.40694 23.8119 8.38935 23.8105 8.38091C23.8091 8.37197 23.8074 8.36369 23.807 8.36167L23.3169 8.4608C23.3178 8.46494 23.3173 8.46283 23.3168 8.45975C23.3165 8.45779 23.3159 8.45417 23.3155 8.44939C23.315 8.44472 23.3145 8.4375 23.3145 8.4285H23.8145ZM23.8194 8.4581C23.8194 8.45452 23.8231 8.38606 23.7875 8.31565L23.3414 8.54135C23.3281 8.51511 23.3229 8.49108 23.3208 8.47467C23.3191 8.46141 23.3194 8.45061 23.3194 8.4581H23.8194ZM23.8194 8.49757V8.4581H23.3194V8.49757H23.8194ZM23.8194 8.51731V8.49757H23.3194V8.51731H23.8194ZM23.8194 14.0824V8.51731H23.3194V14.0824H23.8194ZM20.8142 17.0558C22.4669 17.0558 23.8194 15.7231 23.8194 14.0824H23.3194C23.3194 15.4415 22.1963 16.5558 20.8142 16.5558V17.0558ZM10.5365 22.3117C10.5365 22.9202 10.0329 23.4185 9.4139 23.4185V23.9185C10.3023 23.9185 11.0365 23.203 11.0365 22.3117H10.5365ZM9.4139 21.205C10.0329 21.205 10.5365 21.7032 10.5365 22.3117H11.0365C11.0365 21.4204 10.3023 20.705 9.4139 20.705V21.205ZM8.29127 22.3117C8.29127 21.7076 8.79552 21.205 9.4139 21.205V20.705C8.52488 20.705 7.79127 21.4259 7.79127 22.3117H8.29127ZM9.4139 23.4185C8.79552 23.4185 8.29127 22.9159 8.29127 22.3117H7.79127C7.79127 23.1975 8.52488 23.9185 9.4139 23.9185V23.4185ZM20.1653 23.9185C21.0537 23.9185 21.788 23.203 21.788 22.3117H21.288C21.288 22.9202 20.7843 23.4185 20.1653 23.4185V23.9185ZM18.5427 22.3117C18.5427 23.1975 19.2763 23.9185 20.1653 23.9185V23.4185C19.5469 23.4185 19.0427 22.9159 19.0427 22.3117H18.5427ZM20.1653 20.705C19.2763 20.705 18.5427 21.4259 18.5427 22.3117H19.0427C19.0427 21.7076 19.5469 21.205 20.1653 21.205V20.705ZM21.788 22.3117C21.788 21.4204 21.0537 20.705 20.1653 20.705V21.205C20.7843 21.205 21.288 21.7032 21.288 22.3117H21.788ZM20.8142 15.2237H7.43232V15.7237H20.8142V15.2237ZM21.9718 14.0775C21.9718 14.7113 21.4525 15.2237 20.8142 15.2237V15.7237C21.7232 15.7237 22.4718 14.9929 22.4718 14.0775L21.9718 14.0775ZM21.9718 9.08961V14.0775H22.4718V9.08961H21.9718ZM5.99103 7.13199L22.188 9.33732L22.2555 8.84189L6.05848 6.63656L5.99103 7.13199ZM6.27476 7.13096V6.88427H5.77476V7.13096H6.27476ZM6.27476 10.8016V7.13096H5.77476V10.8016H6.27476ZM6.27476 14.0824V10.8016H5.77476V14.0824H6.27476ZM7.43232 15.2237C6.78957 15.2237 6.27476 14.7069 6.27476 14.0824H5.77476C5.77476 14.9874 6.51777 15.7237 7.43232 15.7237V15.2237Z" fill="#6E7FAA"/>
</svg>
