<svg width="28" height="26" viewBox="0 0 28 26" fill="none" xmlns="http://www.w3.org/2000/svg">
<path d="M14.4276 1.19095L15.0353 0.454348L15.0265 0.447292L14.4276 1.19095ZM13.3421 1.19095L12.7431 0.44724L12.7345 0.454407L13.3421 1.19095ZM1.34716 11.0872L0.739475 10.3507L0.735795 10.3538L1.34716 11.0872ZM1.23305 12.2748L0.494339 12.8798L0.508346 12.8969L0.523128 12.9134L1.23305 12.2748ZM2.43258 12.3878L3.00948 13.1487L3.0237 13.1379L3.03752 13.1266L2.43258 12.3878ZM4.74606 10.4935H5.70092V8.47748L4.14113 9.75467L4.74606 10.4935ZM22.9954 10.4935L23.6004 9.75467L22.0406 8.47748V10.4935H22.9954ZM25.3089 12.3878L25.9371 11.6686L25.9256 11.6586L25.9139 11.649L25.3089 12.3878ZM25.8516 12.5858L25.8471 11.6309L25.8359 11.6311L25.8516 12.5858ZM26.5085 12.2758L25.8249 11.6091L25.7975 11.6372L25.7725 11.6674L26.5085 12.2758ZM11.8862 22.5668H10.9313V23.5217H11.8862V22.5668ZM11.8862 16.629H12.8411V16.6201L12.8409 16.6113L11.8862 16.629ZM12.7431 15.7807L12.7257 16.7354L12.7344 16.7356H12.7431V15.7807ZM15.0277 15.7807V16.7356H15.0363L15.045 16.7354L15.0277 15.7807ZM15.8845 16.629L14.9298 16.6113L14.9297 16.6201V16.629H15.8845ZM15.8845 22.5668V23.5217H16.8394V22.5668H15.8845ZM27.0305 10.3507L15.0352 0.454399L13.8199 1.9275L25.8152 11.8238L27.0305 10.3507ZM15.0265 0.447292C14.3607 -0.088912 13.4089 -0.088912 12.7432 0.447292L13.9411 1.93461C13.9075 1.96161 13.8621 1.96161 13.8286 1.93461L15.0265 0.447292ZM12.7345 0.454407L0.739483 10.3507L1.95483 11.8238L13.9498 1.92749L12.7345 0.454407ZM0.735795 10.3538C-0.0241578 10.9872 -0.134102 12.1126 0.494339 12.8798L1.97176 11.6698C2.00969 11.7161 2.00125 11.7851 1.95852 11.8207L0.735795 10.3538ZM0.523128 12.9134C1.16439 13.6263 2.24708 13.7267 3.00948 13.1487L1.85568 11.6269C1.86985 11.6162 1.88695 11.6126 1.89994 11.6138C1.91296 11.615 1.93005 11.6219 1.94297 11.6362L0.523128 12.9134ZM3.03752 13.1266L5.351 11.2322L4.14113 9.75467L1.82764 11.649L3.03752 13.1266ZM3.7912 10.4935V20.8985H5.70092V10.4935H3.7912ZM3.7912 20.8985C3.7912 23.4056 5.99327 25.2745 8.51582 25.2745V23.3648C6.86854 23.3648 5.70092 22.18 5.70092 20.8985H3.7912ZM8.51582 25.2745H19.2257V23.3648H8.51582V25.2745ZM19.2257 25.2745C21.7482 25.2745 23.9503 23.4056 23.9503 20.8985H22.0406C22.0406 22.18 20.873 23.3648 19.2257 23.3648V25.2745ZM23.9503 20.8985V10.4935H22.0406V20.8985H23.9503ZM22.3905 11.2322L24.704 13.1266L25.9139 11.649L23.6004 9.75467L22.3905 11.2322ZM24.6808 13.1069C25.0093 13.3939 25.4326 13.5477 25.8674 13.5406L25.8359 11.6311C25.8716 11.6305 25.9078 11.643 25.9371 11.6686L24.6808 13.1069ZM25.8562 13.5407C26.392 13.5381 26.9014 13.2991 27.2444 12.8843L25.7725 11.6674C25.7929 11.6428 25.8207 11.6311 25.8471 11.631L25.8562 13.5407ZM27.192 12.9426C27.541 12.5847 27.7218 12.0946 27.6858 11.5941L25.781 11.7312C25.7776 11.6842 25.7949 11.6399 25.8249 11.6091L27.192 12.9426ZM27.6858 11.5941C27.6498 11.0937 27.4008 10.6348 27.0051 10.3304L25.8407 11.8441C25.8076 11.8186 25.7844 11.7781 25.781 11.7312L27.6858 11.5941ZM12.8411 22.5668V16.629H10.9313V22.5668H12.8411ZM12.8409 16.6113C12.8416 16.6476 12.8272 16.6805 12.8043 16.7031L11.4607 15.346C11.1147 15.6886 10.9224 16.158 10.9315 16.6467L12.8409 16.6113ZM12.8043 16.7031C12.7819 16.7254 12.7533 16.7359 12.7257 16.7354L12.7604 14.826C12.2758 14.8172 11.8065 15.0038 11.4607 15.346L12.8043 16.7031ZM12.7431 16.7356H15.0277V14.8258H12.7431V16.7356ZM15.045 16.7354C15.0174 16.7359 14.9889 16.7254 14.9664 16.7031L16.31 15.346C15.9643 15.0038 15.4949 14.8172 15.0103 14.826L15.045 16.7354ZM14.9664 16.7031C14.9435 16.6805 14.9292 16.6476 14.9298 16.6113L16.8392 16.6467C16.8483 16.158 16.656 15.6886 16.31 15.346L14.9664 16.7031ZM14.9297 16.629V22.5668H16.8394V16.629H14.9297ZM15.8845 21.612H11.8862V23.5217H15.8845V21.612Z" fill="#6E7FAA"/>
</svg>
